<svg width="200" height="201" viewBox="0 0 200 201" fill="none" xmlns="http://www.w3.org/2000/svg">
<path d="M107.125 199.766C111.617 197.835 115.725 194.986 119.413 191.488L119.419 191.482L119.683 191.235L119.71 191.207L119.941 190.985L119.995 190.924L120.205 190.725L120.288 190.643L120.859 190.067L120.981 189.94L121.141 189.779L121.239 189.675L121.42 189.486L121.492 189.414C124.844 185.874 127.823 181.805 130.436 177.442L132.216 177.344C133.783 177.257 135.27 176.936 136.663 176.403C135.612 178.451 134.452 180.437 133.196 182.379C131.793 184.548 133.999 187.239 136.384 186.265L166.715 173.866C170.574 172.288 173.322 169.511 174.873 165.627C176.701 161.073 177.593 156.139 177.748 151.042V151.03L177.753 150.677V150.633L177.763 150.306V150.228V149.942L177.769 149.821L177.763 149.007V148.835V148.608L177.757 148.458L177.753 148.199V148.094C177.635 143.213 176.879 138.221 175.658 133.281L176.851 131.94C177.903 130.755 178.728 129.484 179.335 128.138C180.03 130.327 180.606 132.551 181.083 134.81C181.618 137.341 185.071 137.676 186.071 135.292L198.796 104.97C200.408 101.108 200.402 97.1959 198.773 93.3414C196.852 88.8248 194.017 84.6985 190.538 80.9914L190.533 80.9856L190.284 80.7205L190.256 80.6931L190.037 80.4594L189.975 80.4048L189.777 80.1943L189.696 80.1123L189.123 79.5364L188.997 79.4154L188.837 79.2555L188.733 79.1561L188.544 78.9722L188.474 78.9001C184.952 75.5327 180.902 72.5391 176.561 69.9125L176.462 68.1219C176.375 66.536 176.066 65.0504 175.549 63.6658C177.579 64.7189 179.548 65.8814 181.473 67.1384C183.632 68.5478 186.31 66.3313 185.34 63.9343L173.003 33.4516C171.433 29.5731 168.669 26.8139 164.805 25.252C160.275 23.4151 155.364 22.5194 150.293 22.3652H150.283L149.929 22.3594H149.886L149.56 22.3479H149.484H149.196L149.076 22.342L148.266 22.3479H148.096H147.871L147.723 22.3536L147.462 22.3594H147.358C142.501 22.4763 137.533 23.2369 132.616 24.464L131.286 23.2667C130.107 22.2087 128.841 21.3776 127.499 20.7661C129.675 20.0676 131.887 19.4892 134.133 19.0103C136.652 18.4734 136.986 15.0025 134.614 13.9966L104.449 1.21161C100.607 -0.410746 96.7158 -0.404116 92.8779 1.23316C88.3853 3.16375 84.2836 6.01323 80.5892 9.5115L80.5834 9.5173L80.3188 9.76504L80.2915 9.79238L80.0607 10.0153L80.0046 10.0758L79.7969 10.2746L79.7136 10.3583L79.1406 10.9325L79.0202 11.0618L78.8603 11.2209L78.7614 11.3261L78.5783 11.5133L78.5066 11.5912C75.156 15.1268 72.1772 19.1943 69.5644 23.5559L67.7836 23.6553C66.2171 23.7423 64.729 24.0638 63.3364 24.5958C64.3868 22.5475 65.5485 20.5614 66.8041 18.6192C68.2074 16.4492 66.0011 13.7588 63.6159 14.7332L33.2855 27.1321C29.4261 28.7097 26.6782 31.4871 25.1265 35.3715C23.2987 39.9253 22.4058 44.8595 22.2525 49.9561V49.9677L22.2467 50.3207V50.3654L22.2351 50.6911V50.769V51.0556L22.231 51.1783L22.2351 51.9903V52.1618V52.388L22.2409 52.538L22.2467 52.7973V52.9034C22.3629 57.7845 23.1198 62.7776 24.3417 67.7176L23.1486 69.0574C22.0983 70.2422 21.2722 71.5125 20.6645 72.8597C19.9687 70.6706 19.394 68.4475 18.9167 66.188C18.3824 63.6567 14.9287 63.3219 13.9286 65.7058L1.20467 96.0268C-0.407165 99.8896 -0.403041 103.801 1.2261 107.658C3.14876 112.173 5.98409 116.3 9.46334 120.008L9.46911 120.012L9.71563 120.278L9.74448 120.307L9.9638 120.539L10.024 120.594L10.2218 120.805L10.3051 120.887L10.8781 121.463L11.0043 121.584L11.1634 121.746L11.2681 121.845L11.4544 122.027L11.5262 122.099C15.0474 125.466 19.0964 128.46 23.4372 131.086L23.5361 132.877C23.6235 134.463 23.9327 135.949 24.4505 137.332C22.4215 136.279 20.4518 135.118 18.5275 133.861C16.3691 132.451 13.6912 134.668 14.6608 137.064L26.9964 167.546C28.5662 171.425 31.3298 174.185 35.1949 175.746C39.7262 177.583 44.6375 178.479 49.7072 178.633H49.7187L50.0699 178.639H50.1145L50.4393 178.65H50.5168H50.8021L50.9241 178.656L51.7321 178.65H51.9027H52.1303L52.2778 178.644L52.5359 178.639H52.6406C57.4975 178.522 62.4666 177.761 67.3829 176.533L68.7144 177.731C69.8967 178.791 71.168 179.614 72.5127 180.225C70.3304 180.926 68.1134 181.506 65.8609 181.985C63.3422 182.522 63.0083 185.993 65.3803 186.998L95.5499 199.786C99.3953 201.41 103.287 201.404 107.125 199.766ZM147.392 139.859L147.387 140.169L147.389 140.337C147.389 140.36 147.385 140.473 147.385 140.497L147.384 140.649C147.303 146.69 146.483 152.224 144.968 157.036C144.964 157.048 144.933 157.141 144.929 157.153L144.534 158.341C144.518 158.382 144.502 158.422 144.489 158.464L144.214 159.234C143.266 161.751 142.096 164.015 140.755 166.049C140.081 167.07 139.378 168.051 138.61 168.94C137.171 170.615 135.459 171.629 133.422 172.038C132.944 172.134 132.453 172.207 131.938 172.236L121.839 172.798C119.459 172.94 117.321 171.768 116.152 169.685C114.95 167.546 115.065 165.044 116.468 162.977L116.547 162.86C116.58 162.813 116.613 162.765 116.644 162.716L117.239 161.814C117.263 161.779 117.287 161.741 117.308 161.705L117.744 160.992C117.749 160.984 117.795 160.91 117.798 160.902L117.992 160.571C118.005 160.549 118.058 160.465 118.07 160.444L118.195 160.231C118.225 160.185 118.253 160.136 118.281 160.088L118.48 159.73C121.263 154.788 123.194 149.279 124.395 142.826C124.486 142.325 124.574 141.82 124.642 141.386L124.778 140.501C124.79 140.446 124.8 140.391 124.808 140.334C124.833 140.17 124.851 139.997 124.875 139.831C125.303 136.8 125.58 133.55 125.689 130.148C125.812 126.273 128.763 123.151 132.606 122.88L137.753 122.518C137.857 122.512 137.957 122.514 138.059 122.512C139.545 122.486 140.867 123.011 142.088 124.136C145.592 127.364 147.32 134.579 147.384 138.371L147.383 138.659L147.387 139.02C147.386 139.062 147.386 139.104 147.386 139.146L147.391 139.808H149.936L147.392 139.859ZM172.385 110.165L172.589 110.617C173.697 113.078 174.489 115.531 174.972 117.947C175.208 119.126 175.376 120.297 175.46 121.455C175.615 123.661 175.116 125.595 173.965 127.335C173.694 127.743 173.399 128.145 173.056 128.532L166.314 136.103C164.715 137.898 162.393 138.585 160.098 137.943C157.745 137.283 156.066 135.432 155.61 133.005L155.56 132.743C155.554 132.706 155.546 132.67 155.536 132.633L155.489 132.376C155.482 132.333 155.474 132.29 155.465 132.248L155.4 131.955C155.394 131.913 155.386 131.87 155.376 131.828L155.117 130.704C155.111 130.674 155.087 130.566 155.079 130.537L154.874 129.734C154.865 129.699 154.855 129.665 154.846 129.631L154.745 129.246C153.235 123.775 150.724 118.509 147.04 113.109C146.75 112.679 146.452 112.254 146.172 111.871L145.67 111.183C145.638 111.133 145.604 111.083 145.569 111.034C145.471 110.901 145.363 110.766 145.263 110.632C143.427 108.178 141.336 105.683 139.023 103.206C136.386 100.381 136.273 96.079 138.8 93.1558C138.83 93.1201 138.86 93.0837 138.889 93.0472L142.185 89.2399C142.254 89.1595 142.338 89.1024 142.41 89.027C143.439 87.9531 144.737 87.3739 146.389 87.3019C151.133 87.0897 157.438 90.97 160.181 93.6388L160.6 94.049C160.632 94.0846 160.666 94.1194 160.701 94.1542L161.754 95.214C165.944 99.54 169.259 104.037 171.566 108.494C171.576 108.517 171.623 108.614 171.634 108.637L172.311 110.02C172.33 110.059 172.356 110.112 172.385 110.165ZM138.298 52.8744C138.35 52.8769 138.396 52.8752 138.458 52.8777L138.932 52.8727L139.099 52.8735C139.124 52.8769 139.176 52.8719 139.222 52.8711L139.468 52.8744L139.654 52.8727L139.744 52.8752C139.759 52.8752 139.776 52.876 139.792 52.876L139.951 52.8777C145.961 52.9589 151.468 53.7825 156.252 55.3054C156.27 55.3121 156.369 55.346 156.387 55.3518L157.556 55.7429C157.595 55.7587 157.636 55.7744 157.677 55.7885L158.464 56.0752C158.475 56.0793 158.487 56.0835 158.498 56.0868C160.981 57.0338 163.215 58.2021 165.222 59.5395C166.238 60.2164 167.214 60.9232 168.099 61.6946C169.766 63.1438 170.776 64.8639 171.183 66.9105C171.279 67.3911 171.351 67.8841 171.38 68.402L171.939 78.5496C172.071 80.9541 170.914 83.0919 168.842 84.2668C166.713 85.474 164.223 85.358 162.135 83.9262L162.048 83.8674C161.997 83.8301 161.943 83.7937 161.89 83.7605L161.694 83.6279C161.665 83.6064 161.633 83.5857 161.604 83.565L161.257 83.3412C161.247 83.3338 161.238 83.328 161.231 83.323L160.995 83.1656C160.973 83.1507 160.865 83.0836 160.842 83.0695L160.238 82.6991C160.218 82.685 160.13 82.6287 160.108 82.6154L159.73 82.3892C159.697 82.3685 159.661 82.3461 159.646 82.3378L159.428 82.2086C159.402 82.1928 159.327 82.1473 159.301 82.1324L158.937 81.926C154.02 79.1296 148.539 77.1882 142.123 75.9826C141.625 75.8898 141.118 75.7995 140.679 75.7308L139.804 75.5949C139.75 75.5824 139.694 75.5725 139.638 75.5642C139.475 75.5393 139.303 75.5211 139.138 75.4979C136.122 75.0671 132.888 74.7887 129.502 74.6793C125.647 74.555 122.54 71.5912 122.276 67.783L121.911 62.5555C121.903 62.4511 121.906 62.3492 121.904 62.2473C121.875 60.7542 122.4 59.426 123.519 58.1997C126.732 54.6782 133.912 52.9407 137.71 52.876L138.298 52.8744ZM93.1681 40.0214L93.5993 39.579C93.6265 39.5541 93.652 39.5293 93.6776 39.5036L94.1516 39.0247C94.1607 39.0156 94.192 38.9824 94.2193 38.9534L94.742 38.4364C99.0465 34.2247 103.518 30.8946 108.078 28.515L109.478 27.8239C109.507 27.8107 109.556 27.7858 109.602 27.7618L110.065 27.5497C112.516 26.4361 114.957 25.6398 117.356 25.1534C118.53 24.9156 119.696 24.7458 120.845 24.6612C123.052 24.508 124.972 25.0076 126.701 26.1643C127.107 26.4361 127.506 26.7327 127.892 27.079L135.424 33.8543C137.209 35.4601 137.894 37.7951 137.255 40.0993C136.598 42.4649 134.756 44.1528 132.328 44.6134L132.081 44.6607C132.036 44.6698 131.99 44.6805 131.943 44.6922L131.74 44.7286C131.677 44.7394 131.615 44.7518 131.553 44.7667L131.33 44.8164C131.272 44.8256 131.214 44.8363 131.156 44.8496L130.015 45.1139C129.968 45.123 129.923 45.1338 129.877 45.1462L129.138 45.3376C129.095 45.3467 129.052 45.3583 129.009 45.3699L128.6 45.4785C123.149 47.0006 117.908 49.5261 112.629 53.166C112.614 53.176 112.556 53.2141 112.541 53.224C112.115 53.5165 111.689 53.819 111.348 54.0733L111.246 54.1421C111.212 54.1653 111.178 54.1893 111.145 54.2142L110.604 54.6152C110.562 54.6426 110.521 54.6716 110.48 54.7014C110.347 54.8 110.214 54.9085 110.08 55.0088C107.642 56.8491 105.16 58.9504 102.691 61.2778C99.8792 63.9301 95.5978 64.0403 92.6882 61.5007L88.7943 58.1002C88.7143 58.0306 88.6574 57.9469 88.5824 57.8749C87.5139 56.84 86.9376 55.5374 86.8658 53.8778C86.6622 49.1043 90.5182 42.7748 93.1681 40.0214ZM85.4585 61.9656L89.3978 65.4042C91.7417 67.4499 94.6397 68.4666 97.5418 68.4666C100.639 68.4658 103.74 67.3099 106.178 65.0114C108.517 62.8057 110.859 60.8221 113.089 59.1376C114.195 60.1303 115.467 60.9091 116.838 61.4427C116.806 61.9283 116.795 62.418 116.829 62.9151L117.195 68.1426C117.643 74.5782 122.863 79.587 129.337 79.7941C132.514 79.8968 135.541 80.1554 138.357 80.5539C138.441 82.042 138.792 83.4954 139.386 84.8468C139.022 85.1674 138.67 85.5063 138.344 85.8825L134.959 89.7934C134.926 89.829 134.897 89.8655 134.869 89.9019C130.713 94.7707 130.899 101.98 135.311 106.705C137.481 109.029 139.441 111.363 141.156 113.652C140.168 114.763 139.393 116.041 138.862 117.42C138.378 117.388 137.891 117.377 137.397 117.412L132.196 117.777C125.793 118.227 120.808 123.473 120.601 129.98C120.499 133.174 120.242 136.215 119.844 139.046C118.365 139.13 116.918 139.482 115.574 140.079C115.255 139.713 114.917 139.359 114.543 139.032L110.649 135.629C110.619 135.602 110.588 135.577 110.557 135.552C105.715 131.365 98.5312 131.546 93.8219 135.983C91.5068 138.168 89.1851 140.136 86.9112 141.858C85.8039 140.865 84.5326 140.086 83.1607 139.552C83.192 139.067 83.2036 138.578 83.169 138.081L82.8054 132.851C82.356 126.417 77.1363 121.408 70.6626 121.2C67.4876 121.097 64.4602 120.839 61.6405 120.439C61.5564 118.951 61.206 117.499 60.6124 116.147C60.9768 115.827 61.3288 115.488 61.6537 115.111L65.0414 111.201C65.0802 111.156 65.1173 111.11 65.1519 111.063C69.2833 106.197 69.0912 99.0047 64.6877 94.286C62.5128 91.9576 60.5547 89.6244 58.8447 87.3408C59.8316 86.2297 60.6058 84.9528 61.1368 83.5766C61.3684 83.5923 61.5993 83.6097 61.8342 83.6097C62.0873 83.6097 62.3446 83.6006 62.6018 83.5824L67.8042 83.2153C74.2062 82.7645 79.1909 77.5188 79.3987 71.0128C79.5001 67.822 79.7573 64.7794 80.1539 61.9457C81.6346 61.862 83.0807 61.509 84.4254 60.9124C84.7461 61.2836 85.0834 61.6383 85.4585 61.9656ZM52.6077 61.1395L52.6118 60.8395L52.6109 60.6332C52.6118 60.6191 52.6142 60.5155 52.6142 60.5015L52.6151 60.3498C52.6958 54.307 53.5162 48.7746 55.0349 43.958C55.0407 43.9406 55.0736 43.8412 55.0794 43.8238L55.4455 42.7118C55.4553 42.6845 55.5015 42.5627 55.5114 42.5354L55.7884 41.7648C56.7333 39.2509 57.9024 36.988 59.2438 34.9547C59.9182 33.9322 60.6223 32.9504 61.3915 32.0596C62.8318 30.3851 64.5434 29.3709 66.5815 28.9616C67.0589 28.8655 67.5494 28.7925 68.0647 28.7635L78.1611 28.2018C80.5455 28.0617 82.68 29.2317 83.8491 31.3147C85.0504 33.4533 84.9349 35.9556 83.5367 38.0163L83.4509 38.1439C83.4163 38.1911 83.3841 38.2392 83.3536 38.2881L83.2085 38.5043C83.1879 38.5325 83.1689 38.5607 83.15 38.5897L82.9224 38.9451C82.9175 38.9534 82.9117 38.9617 82.9084 38.9667L82.7188 39.2558C82.7155 39.26 82.6603 39.3503 82.657 39.3544L82.436 39.7107C82.4179 39.7389 82.3956 39.7795 82.3733 39.8201L82.1078 40.251C82.0889 40.2816 82.0699 40.3123 82.0535 40.3438L81.9924 40.4523C81.9677 40.4896 81.9446 40.5269 81.9232 40.5642L81.788 40.7978C81.7624 40.8376 81.7385 40.879 81.7154 40.9205L81.5209 41.2693C78.7399 46.2076 76.809 51.7152 75.6078 58.1673C75.5154 58.667 75.428 59.1708 75.3481 59.6621L75.2227 60.4882C75.2096 60.547 75.1997 60.605 75.1906 60.6639C75.1659 60.8279 75.1477 61.0003 75.1246 61.166C74.6967 64.2011 74.4189 67.4516 74.3109 70.8512C74.188 74.7248 71.2373 77.8478 67.4488 78.1146L62.2465 78.4808C62.1426 78.4883 62.042 78.4858 61.9406 78.4874C60.4549 78.5189 59.1333 77.9878 57.9123 76.8634C54.4083 73.6344 52.6802 66.4192 52.6159 62.6143L52.6118 61.9672C52.6134 61.9291 52.6134 61.8902 52.6134 61.852L52.6093 61.1892H50.0642L52.6077 61.1395ZM27.6255 90.8531L27.5488 90.6849C27.5431 90.6709 27.5332 90.6502 27.5233 90.6294L27.4219 90.3999C27.4103 90.3742 27.3979 90.3485 27.3864 90.3237C26.2915 87.881 25.5075 85.4458 25.0276 83.0479C24.7926 81.8713 24.6244 80.7031 24.5403 79.5488C24.3853 77.3432 24.8842 75.4059 26.0351 73.6651C26.3055 73.2558 26.6007 72.8547 26.9445 72.467L33.6878 64.8971C35.2873 63.1015 37.6089 62.4146 39.9034 63.0568C42.2573 63.7163 43.9359 65.5682 44.3918 67.991L44.4413 68.257C44.4471 68.2868 44.4537 68.3158 44.4603 68.3448L44.5114 68.6224C44.5188 68.6588 44.5254 68.6953 44.5337 68.7317L44.6021 69.0441C44.6087 69.0864 44.6169 69.1278 44.626 69.1701L44.8865 70.3077C44.8915 70.3301 44.9137 70.4295 44.9195 70.4527L45.1083 71.1868C45.1223 71.2548 45.1388 71.321 45.1594 71.3873L45.2567 71.7536C46.7663 77.2247 49.2768 82.492 52.9325 87.8553C52.9481 87.8785 52.9729 87.9125 52.9993 87.9465C53.2779 88.3583 53.5624 88.7643 53.8295 89.1289L54.3374 89.8265C54.3679 89.8738 54.3992 89.9193 54.433 89.9649C54.532 90.0983 54.6399 90.2342 54.7405 90.3684C56.5708 92.8169 58.6609 95.3117 60.9776 97.7925C63.6143 100.618 63.7264 104.921 61.1912 107.854C61.1582 107.892 61.1268 107.932 61.0955 107.972L57.8141 111.759C57.7449 111.839 57.6616 111.897 57.5891 111.972C56.5593 113.045 55.2624 113.625 53.611 113.697C48.8332 113.888 42.5624 110.029 39.8136 107.353L39.3783 106.928C39.3543 106.902 39.3296 106.876 39.3049 106.851L38.2471 105.785C34.0588 101.462 30.7444 96.9656 28.4186 92.4681C28.4145 92.4606 28.3749 92.3786 28.3708 92.3711L28.1598 91.9494C28.149 91.927 28.1375 91.9055 28.1268 91.8831L27.6882 90.9783C27.6733 90.9476 27.6494 90.8996 27.6255 90.8531ZM61.6759 148.125C61.6372 148.124 61.6017 148.12 61.5613 148.123L61.3049 148.124C61.286 148.124 61.2431 148.125 61.2052 148.126H61.0526L60.8292 148.128L60.5308 148.125L60.3329 148.125L60.2447 148.124C60.2331 148.124 60.2208 148.124 60.2092 148.124L60.0509 148.122C54.0389 148.041 48.5331 147.216 43.7397 145.69C43.7224 145.684 43.6251 145.65 43.6086 145.645L42.437 145.254C42.3999 145.239 42.362 145.225 42.3249 145.212L41.5573 144.933C39.0534 143.982 36.801 142.808 34.7777 141.459C33.762 140.783 32.7858 140.076 31.9012 139.305C30.2349 137.857 29.225 136.136 28.8169 134.088C28.7212 133.609 28.6487 133.116 28.6198 132.598L28.0608 122.45C27.9289 120.046 29.0873 117.909 31.1592 116.734C33.2879 115.526 35.7786 115.643 37.8126 117.037L37.9429 117.126C38.0063 117.173 38.0723 117.217 38.1399 117.257L38.5019 117.508C38.534 117.529 38.5662 117.55 38.5983 117.571L38.7533 117.666C38.7591 117.67 38.7657 117.674 38.7706 117.678L39.0411 117.858C39.0592 117.87 39.1614 117.935 39.1796 117.946L39.7633 118.302C39.7823 118.315 39.8663 118.37 39.887 118.382L40.2761 118.614C40.3058 118.633 40.3388 118.654 40.3528 118.661L40.5952 118.805C40.6141 118.816 40.6834 118.857 40.7024 118.868L41.0659 119.075C45.9847 121.872 51.4649 123.812 57.8801 125.017C58.3789 125.11 58.8835 125.2 59.3279 125.269L60.2076 125.406C60.2595 125.417 60.3106 125.426 60.3634 125.434C60.5266 125.459 60.6981 125.477 60.8638 125.5C63.8847 125.932 67.1191 126.21 70.5018 126.319C74.3554 126.443 77.4628 129.408 77.7283 133.214L78.0919 138.444C78.0993 138.548 78.096 138.649 78.0985 138.752C78.1273 140.245 77.603 141.573 76.4834 142.799C73.2704 146.321 66.0918 148.057 62.2935 148.122L61.6759 148.125ZM92.008 172.44C91.9948 172.446 91.9099 172.488 91.8976 172.495L90.5314 173.17C90.4968 173.186 90.444 173.212 90.3937 173.239L90.2223 173.318C90.2107 173.324 90.1934 173.332 90.1752 173.341L89.9337 173.45C87.4858 174.565 85.0446 175.361 82.6404 175.847C81.4681 176.084 80.3048 176.253 79.1538 176.338C76.9607 176.488 75.0323 175.99 73.3001 174.835C72.8928 174.563 72.4929 174.266 72.1063 173.92L64.5756 167.145C62.7898 165.538 62.1047 163.204 62.7444 160.9C63.4007 158.533 65.2442 156.845 67.7704 156.366L67.9023 156.342C67.9567 156.332 68.0103 156.319 68.0647 156.305L68.2618 156.27C68.3022 156.263 68.3434 156.255 68.3838 156.246L68.6979 156.178C68.7466 156.169 68.796 156.16 68.8447 156.149L69.9989 155.881C70.0369 155.873 70.0756 155.864 70.1135 155.854L70.9108 155.648C70.9446 155.64 70.9792 155.631 71.013 155.621L71.3956 155.52C76.842 154 82.0831 151.476 87.4562 147.775C87.8824 147.482 88.3054 147.184 88.7118 146.885L89.3582 146.409C89.4126 146.374 89.4654 146.337 89.5182 146.298C89.6501 146.2 89.7845 146.091 89.9172 145.991C92.3551 144.149 94.8376 142.047 97.3061 139.719C100.117 137.07 104.4 136.957 107.308 139.497C107.338 139.523 107.367 139.547 107.398 139.571L111.202 142.896C111.202 142.897 111.203 142.897 111.203 142.897C111.283 142.967 111.34 143.05 111.415 143.123C112.483 144.157 113.059 145.461 113.131 147.12C113.337 151.896 109.481 158.225 106.816 160.993L106.391 161.432C106.369 161.452 106.347 161.473 106.327 161.494L105.258 162.564C100.955 166.773 96.4808 170.104 92.008 172.44Z" fill="#EB3448"/>
</svg>
